<mxfile host="app.diagrams.net" agent="Mozilla/5.0 (X11; Linux x86_64) AppleWebKit/537.36 (KHTML, like Gecko) Chrome/131.0.0.0 Safari/537.36" version="24.9.3">
  <diagram name="Page-1" id="cOYHTaMsKQmhcH2VH-p7">
    <mxGraphModel dx="983" dy="560" grid="1" gridSize="10" guides="1" tooltips="1" connect="1" arrows="1" fold="1" page="1" pageScale="1" pageWidth="850" pageHeight="1100" math="0" shadow="0">
      <root>
        <mxCell id="0" />
        <mxCell id="1" parent="0" />
        <mxCell id="L_nVeACh7D8ygHX-VB-7-7" value="DNAController" style="shape=umlLifeline;perimeter=lifelinePerimeter;whiteSpace=wrap;html=1;container=1;dropTarget=0;collapsible=0;recursiveResize=0;outlineConnect=0;portConstraint=eastwest;newEdgeStyle={&quot;curved&quot;:0,&quot;rounded&quot;:0};" parent="1" vertex="1">
          <mxGeometry x="159" y="39" width="100" height="460" as="geometry" />
        </mxCell>
        <mxCell id="L_nVeACh7D8ygHX-VB-7-8" value="" style="html=1;points=[[0,0,0,0,5],[0,1,0,0,-5],[1,0,0,0,5],[1,1,0,0,-5]];perimeter=orthogonalPerimeter;outlineConnect=0;targetShapes=umlLifeline;portConstraint=eastwest;newEdgeStyle={&quot;curved&quot;:0,&quot;rounded&quot;:0};" parent="L_nVeACh7D8ygHX-VB-7-7" vertex="1">
          <mxGeometry x="45" y="80" width="10" height="340" as="geometry" />
        </mxCell>
        <mxCell id="L_nVeACh7D8ygHX-VB-7-12" value="DNAService" style="shape=umlLifeline;perimeter=lifelinePerimeter;whiteSpace=wrap;html=1;container=1;dropTarget=0;collapsible=0;recursiveResize=0;outlineConnect=0;portConstraint=eastwest;newEdgeStyle={&quot;curved&quot;:0,&quot;rounded&quot;:0};" parent="1" vertex="1">
          <mxGeometry x="339" y="39" width="100" height="460" as="geometry" />
        </mxCell>
        <mxCell id="L_nVeACh7D8ygHX-VB-7-13" value="" style="html=1;points=[[0,0,0,0,5],[0,1,0,0,-5],[1,0,0,0,5],[1,1,0,0,-5]];perimeter=orthogonalPerimeter;outlineConnect=0;targetShapes=umlLifeline;portConstraint=eastwest;newEdgeStyle={&quot;curved&quot;:0,&quot;rounded&quot;:0};" parent="L_nVeACh7D8ygHX-VB-7-12" vertex="1">
          <mxGeometry x="45" y="170" width="10" height="220" as="geometry" />
        </mxCell>
        <mxCell id="L_nVeACh7D8ygHX-VB-7-14" value="checkDNA(String[] dna)" style="html=1;verticalAlign=bottom;endArrow=block;curved=0;rounded=0;" parent="1" edge="1">
          <mxGeometry x="-0.1094" relative="1" as="geometry">
            <mxPoint x="209" y="238" as="sourcePoint" />
            <mxPoint x="384" y="238" as="targetPoint" />
            <mxPoint as="offset" />
          </mxGeometry>
        </mxCell>
        <mxCell id="L_nVeACh7D8ygHX-VB-7-21" value="&lt;font size=&quot;1&quot;&gt;Validad el dna y lanza una excepciÃ³n si es invalido.&lt;/font&gt;" style="shape=note;size=20;whiteSpace=wrap;html=1;" parent="1" vertex="1">
          <mxGeometry x="229" y="89" width="140" height="70" as="geometry" />
        </mxCell>
        <mxCell id="L_nVeACh7D8ygHX-VB-7-27" value="DNARepository" style="shape=umlLifeline;perimeter=lifelinePerimeter;whiteSpace=wrap;html=1;container=1;dropTarget=0;collapsible=0;recursiveResize=0;outlineConnect=0;portConstraint=eastwest;newEdgeStyle={&quot;curved&quot;:0,&quot;rounded&quot;:0};" parent="1" vertex="1">
          <mxGeometry x="569" y="39" width="100" height="460" as="geometry" />
        </mxCell>
        <mxCell id="L_nVeACh7D8ygHX-VB-7-50" value="" style="html=1;points=[[0,0,0,0,5],[0,1,0,0,-5],[1,0,0,0,5],[1,1,0,0,-5]];perimeter=orthogonalPerimeter;outlineConnect=0;targetShapes=umlLifeline;portConstraint=eastwest;newEdgeStyle={&quot;curved&quot;:0,&quot;rounded&quot;:0};" parent="L_nVeACh7D8ygHX-VB-7-27" vertex="1">
          <mxGeometry x="45" y="310" width="10" height="60" as="geometry" />
        </mxCell>
        <mxCell id="L_nVeACh7D8ygHX-VB-7-33" value="&lt;span style=&quot;font-size: 10px;&quot;&gt;Busca el dna en la Base de Datos,&lt;/span&gt;&lt;div&gt;&lt;span style=&quot;font-size: 10px;&quot;&gt;si esta presente lo retorna, sino lo&amp;nbsp;&lt;/span&gt;&lt;/div&gt;&lt;div&gt;&lt;span style=&quot;font-size: 10px;&quot;&gt;calcula y lo guarda.&lt;/span&gt;&lt;/div&gt;" style="shape=note;size=20;whiteSpace=wrap;html=1;" parent="1" vertex="1">
          <mxGeometry x="419" y="139" width="180" height="85" as="geometry" />
        </mxCell>
        <mxCell id="L_nVeACh7D8ygHX-VB-7-36" value="" style="shape=umlLifeline;perimeter=lifelinePerimeter;whiteSpace=wrap;html=1;container=1;dropTarget=0;collapsible=0;recursiveResize=0;outlineConnect=0;portConstraint=eastwest;newEdgeStyle={&quot;curved&quot;:0,&quot;rounded&quot;:0};participant=umlActor;" parent="1" vertex="1">
          <mxGeometry x="39" y="39" width="20" height="460" as="geometry" />
        </mxCell>
        <mxCell id="L_nVeACh7D8ygHX-VB-7-37" value="" style="html=1;points=[[0,0,0,0,5],[0,1,0,0,-5],[1,0,0,0,5],[1,1,0,0,-5]];perimeter=orthogonalPerimeter;outlineConnect=0;targetShapes=umlLifeline;portConstraint=eastwest;newEdgeStyle={&quot;curved&quot;:0,&quot;rounded&quot;:0};" parent="L_nVeACh7D8ygHX-VB-7-36" vertex="1">
          <mxGeometry x="5" y="80" width="10" height="340" as="geometry" />
        </mxCell>
        <mxCell id="L_nVeACh7D8ygHX-VB-7-38" value="return: Boolean isMutant" style="html=1;verticalAlign=bottom;endArrow=open;dashed=1;endSize=8;curved=0;rounded=0;" parent="1" edge="1" target="L_nVeACh7D8ygHX-VB-7-8">
          <mxGeometry x="-0.0009" relative="1" as="geometry">
            <mxPoint x="389" y="399" as="sourcePoint" />
            <mxPoint x="206.5" y="399" as="targetPoint" />
            <mxPoint as="offset" />
          </mxGeometry>
        </mxCell>
        <mxCell id="L_nVeACh7D8ygHX-VB-7-42" value="[isMutant ==True]" style="text;html=1;align=center;verticalAlign=middle;whiteSpace=wrap;rounded=0;" parent="1" vertex="1">
          <mxGeometry x="69" y="289" width="130" height="30" as="geometry" />
        </mxCell>
        <mxCell id="L_nVeACh7D8ygHX-VB-7-43" value="[else]" style="text;html=1;align=center;verticalAlign=middle;whiteSpace=wrap;rounded=0;" parent="1" vertex="1">
          <mxGeometry x="79" y="379" width="110" height="20" as="geometry" />
        </mxCell>
        <mxCell id="L_nVeACh7D8ygHX-VB-7-44" value="HTTP 403 FORBIDDEN" style="html=1;verticalAlign=bottom;endArrow=open;dashed=1;endSize=8;curved=0;rounded=0;" parent="1" edge="1" target="L_nVeACh7D8ygHX-VB-7-37">
          <mxGeometry x="0.0038" relative="1" as="geometry">
            <mxPoint x="61.5" y="429" as="targetPoint" />
            <mxPoint x="209" y="429" as="sourcePoint" />
            <mxPoint as="offset" />
          </mxGeometry>
        </mxCell>
        <mxCell id="L_nVeACh7D8ygHX-VB-7-51" value="&lt;span style=&quot;text-align: left;&quot;&gt;verifyDNA(String[] dna)&lt;/span&gt;" style="html=1;verticalAlign=bottom;endArrow=block;curved=0;rounded=0;entryX=0;entryY=0;entryDx=0;entryDy=5;exitX=0.407;exitY=0.23;exitDx=0;exitDy=0;exitPerimeter=0;" parent="1" source="L_nVeACh7D8ygHX-VB-7-13" edge="1">
          <mxGeometry x="0.0031" relative="1" as="geometry">
            <mxPoint x="394" y="259" as="sourcePoint" />
            <mxPoint x="614" y="259" as="targetPoint" />
            <mxPoint as="offset" />
          </mxGeometry>
        </mxCell>
        <mxCell id="L_nVeACh7D8ygHX-VB-7-62" value="save(adn)" style="html=1;verticalAlign=bottom;endArrow=block;curved=0;rounded=0;" parent="1" edge="1">
          <mxGeometry relative="1" as="geometry">
            <mxPoint x="394" y="378.66" as="sourcePoint" />
            <mxPoint x="614" y="378.66" as="targetPoint" />
          </mxGeometry>
        </mxCell>
        <mxCell id="L_nVeACh7D8ygHX-VB-7-19" value="verifyDNA(String[] dna)" style="html=1;align=left;spacingLeft=2;endArrow=block;rounded=0;edgeStyle=orthogonalEdgeStyle;curved=0;rounded=0;" parent="1" edge="1">
          <mxGeometry x="0.0108" relative="1" as="geometry">
            <mxPoint x="209" y="167" as="sourcePoint" />
            <Array as="points">
              <mxPoint x="209" y="167" />
              <mxPoint x="239" y="167" />
              <mxPoint x="239" y="217" />
            </Array>
            <mxPoint x="214" y="217" as="targetPoint" />
            <mxPoint as="offset" />
          </mxGeometry>
        </mxCell>
        <mxCell id="hH12lKpZPwD--o2lvnlE-2" value="HTTP 400 BAD_REQUEST" style="html=1;verticalAlign=bottom;endArrow=open;dashed=1;endSize=8;curved=0;rounded=0;" edge="1" parent="1">
          <mxGeometry x="0.0323" relative="1" as="geometry">
            <mxPoint x="54" y="217" as="targetPoint" />
            <mxPoint x="209" y="217" as="sourcePoint" />
            <mxPoint as="offset" />
          </mxGeometry>
        </mxCell>
        <mxCell id="L_nVeACh7D8ygHX-VB-7-9" value="/mutant/&lt;br&gt;POST: DNADto dna" style="html=1;verticalAlign=bottom;endArrow=block;curved=0;rounded=0;entryX=0;entryY=0;entryDx=0;entryDy=5;" parent="1" edge="1">
          <mxGeometry x="-0.0934" y="5" relative="1" as="geometry">
            <mxPoint x="48.810344827586164" y="150.00000000000443" as="sourcePoint" />
            <mxPoint x="204" y="150.00000000000443" as="targetPoint" />
            <mxPoint as="offset" />
          </mxGeometry>
        </mxCell>
        <mxCell id="L_nVeACh7D8ygHX-VB-7-25" value="isMutant(String[] dna)" style="html=1;align=left;spacingLeft=2;endArrow=block;rounded=0;edgeStyle=orthogonalEdgeStyle;curved=0;rounded=0;" parent="1" edge="1" target="L_nVeACh7D8ygHX-VB-7-13">
          <mxGeometry x="0.0526" y="10" relative="1" as="geometry">
            <mxPoint x="389" y="319" as="sourcePoint" />
            <Array as="points">
              <mxPoint x="419" y="319" />
              <mxPoint x="419" y="359" />
            </Array>
            <mxPoint x="394" y="349" as="targetPoint" />
            <mxPoint as="offset" />
          </mxGeometry>
        </mxCell>
        <mxCell id="hH12lKpZPwD--o2lvnlE-6" value="" style="html=1;points=[[0,0,0,0,5],[0,1,0,0,-5],[1,0,0,0,5],[1,1,0,0,-5]];perimeter=orthogonalPerimeter;outlineConnect=0;targetShapes=umlLifeline;portConstraint=eastwest;newEdgeStyle={&quot;curved&quot;:0,&quot;rounded&quot;:0};" vertex="1" parent="1">
          <mxGeometry x="614" y="229" width="10" height="80" as="geometry" />
        </mxCell>
        <mxCell id="L_nVeACh7D8ygHX-VB-7-52" value="return: Boolean isMutant" style="html=1;verticalAlign=bottom;endArrow=open;dashed=1;endSize=8;curved=0;rounded=0;exitX=0;exitY=1;exitDx=0;exitDy=-5;" parent="1" edge="1" target="L_nVeACh7D8ygHX-VB-7-13">
          <mxGeometry x="0.0049" relative="1" as="geometry">
            <mxPoint x="399" y="279" as="targetPoint" />
            <mxPoint x="619" y="280" as="sourcePoint" />
            <mxPoint as="offset" />
          </mxGeometry>
        </mxCell>
        <mxCell id="hH12lKpZPwD--o2lvnlE-9" value="return: Boolean isMutant" style="html=1;verticalAlign=bottom;endArrow=open;dashed=1;endSize=8;curved=0;rounded=0;" edge="1" parent="1" target="L_nVeACh7D8ygHX-VB-7-8">
          <mxGeometry x="-0.0009" relative="1" as="geometry">
            <mxPoint x="389.5" y="297" as="sourcePoint" />
            <mxPoint x="219" y="297" as="targetPoint" />
            <mxPoint as="offset" />
          </mxGeometry>
        </mxCell>
        <mxCell id="L_nVeACh7D8ygHX-VB-7-10" value="HTTP 200 OK" style="html=1;verticalAlign=bottom;endArrow=open;dashed=1;endSize=8;curved=0;rounded=0;" parent="1" edge="1" target="L_nVeACh7D8ygHX-VB-7-37">
          <mxGeometry relative="1" as="geometry">
            <mxPoint x="59" y="349" as="targetPoint" />
            <mxPoint x="209" y="349" as="sourcePoint" />
          </mxGeometry>
        </mxCell>
      </root>
    </mxGraphModel>
  </diagram>
</mxfile>
